#!OML:ASF F:\VICON\USERDATA\INSTALL\rory3\rory3.ASF
:FULLY-SPECIFIED
:DEGREES
1024
root 0.744848 15.7133 3.12526 7.42882 -43.5145 12.1913
lowerback -1.75379 5.29013 6.64633
upperback 4.07922 6.82526 -1.40401
thorax 6.21612 3.71026 -4.63055
lowerneck 1.84071 -9.58565 -12.5115
upperneck 47.5045 -18.7056 8.22407
head 21.1812 -9.14887 3.42258
rclavicle -3.18055e-015 1.27222e-014
rhumerus -22.7894 21.0649 -96.7742
rradius 19.8586
rwrist 19.0361
rhand -26.3451 -55.5493
rfingers 7.12502
rthumb 0.212412 -85.529
lclavicle -3.18055e-015 1.27222e-014
lhumerus -55.3545 -83.8606 131.696
lradius 83.4104
lwrist 26.2888
lhand 3.83514 -20.7073
lfingers 7.12502
lthumb 29.2583 7.01173
rfemur -32.7601 0.19296 -4.01536
rtibia 75.2739
rfoot -2.89321 -10.1448
rtoes -31.4661
lfemur -50.8404 -20.8287 -28.4138
ltibia 57.6598
lfoot -21.0411 0.446002
ltoes 15.9841
1025
root 0.745381 15.7185 3.12627 7.37961 -43.6393 12.1923
lowerback -1.63201 5.347 6.65692
upperback 4.0491 6.90971 -1.40976
thorax 6.12826 3.74993 -4.64697
lowerneck 1.93927 -9.5781 -12.5631
upperneck 47.4818 -18.7578 8.35939
head 21.1899 -9.17265 3.49863
rclavicle 5.56597e-015 -1.59028e-014
rhumerus -22.9218 20.8488 -96.7168
rradius 19.9701
rwrist 19.2682
rhand -26.339 -55.2875
rfingers 7.12502
rthumb 0.218318 -85.2671
lclavicle 5.56597e-015 -1.59028e-014
lhumerus -56.271 -83.8445 132.682
lradius 83.3742
lwrist 26.2833
lhand 3.98201 -20.7684
lfingers 7.12502
lthumb 29.3985 6.92609
rfemur -32.8452 0.27557 -3.98747
rtibia 75.3027
rfoot -2.65263 -10.2224
rtoes -32.142
lfemur -50.7956 -20.6437 -28.445
ltibia 57.6672
lfoot -21.1121 0.089607
ltoes 17.1285
1026
root 0.745768 15.7239 3.12222 7.48092 -43.5962 12.1157
lowerback -1.59468 5.34663 6.68204
upperback 3.98553 6.90988 -1.36674
thorax 6.0365 3.74578 -4.62301
lowerneck 2.10716 -9.55124 -12.7225
upperneck 47.4561 -18.7817 8.51805
head 21.1959 -9.20604 3.61635
rclavicle -4.53229e-014 -2.06736e-014
rhumerus -23.0539 20.9114 -96.6862
rradius 20.0206
rwrist 19.2141
rhand -26.436 -54.6843
rfingers 7.12502
rthumb 0.124632 -84.664
lclavicle -4.53229e-014 -2.06736e-014
lhumerus -57.0615 -83.7568 133.564
lradius 83.3965
lwrist 26.4787
lhand 4.37896 -20.4953
lfingers 7.12502
lthumb 29.7774 7.13205
rfemur -32.9394 0.253609 -3.86327
rtibia 75.333
rfoot -2.55579 -10.3484
rtoes -32.0313
lfemur -50.8758 -20.7049 -28.3261
ltibia 57.6816
lfoot -21.1169 0.276023
ltoes 16.3003
1027
root 0.74642 15.7194 3.10988 7.65905 -43.4681 11.9716
lowerback -1.5282 5.25835 6.67589
upperback 3.90102 6.7933 -1.26984
thorax 5.87814 3.67844 -4.54159
lowerneck 2.239 -9.46996 -12.8587
upperneck 47.4307 -18.6612 8.55668
head 21.1387 -9.18776 3.69289
rclavicle -1.1609e-013 6.36111e-014
rhumerus -23.1653 21.2354 -96.7161
rradius 19.9544
rwrist 19.1962
rhand -26.5802 -54.3352
rfingers 7.12502
rthumb -0.0146622 -84.315
lclavicle -1.1609e-013 6.36111e-014
lhumerus -56.857 -83.5606 133.425
lradius 83.4684
lwrist 26.4863
lhand 4.48781 -19.99
lfingers 7.12502
lthumb 29.8813 7.61869
rfemur -33.0132 0.25151 -3.69148
rtibia 75.3833
rfoot -2.69862 -10.4494
rtoes -31.394
lfemur -51.0176 -20.7433 -28.1611
ltibia 57.7011
lfoot -21.0169 0.464707
ltoes 15.1488
1028
root 0.74806 15.7142 3.10337 7.69832 -43.4352 11.9403
lowerback -1.43539 5.15271 6.59305
upperback 3.87208 6.65998 -1.23062
thorax 5.75995 3.60394 -4.47893
lowerneck 2.20549 -9.40958 -12.7555
upperneck 47.4243 -18.5119 8.41789
head 21.0461 -9.12284 3.62823
rclavicle 5.00937e-014 4.92986e-014
rhumerus -23.2539 21.738 -96.8677
rradius 20.0725
rwrist 18.9472
rhand -26.3853 -54.4693
rfingers 7.12502
rthumb 0.173598 -84.4489
lclavicle 5.00937e-014 4.92986e-014
lhumerus -56.1012 -83.4735 132.573
lradius 83.5341
lwrist 26.2162
lhand 4.17297 -19.9876
lfingers 7.12502
lthumb 29.5808 7.67477
rfemur -33.0242 0.287063 -3.66648
rtibia 75.4093
rfoot -2.88944 -10.4199
rtoes -30.1513
lfemur -51.0709 -20.7237 -28.1382
ltibia 57.6943
lfoot -20.9461 0.199019
ltoes 16.7818
1029
root 0.748403 15.7196 3.10962 7.57026 -43.5072 12.0937
lowerback -1.48407 5.09431 6.44508
upperback 3.95823 6.58598 -1.29904
thorax 5.85932 3.56768 -4.46707
lowerneck 2.01239 -9.41751 -12.4345
upperneck 47.4076 -18.4575 8.22898
head 20.9633 -9.05257 3.46922
rclavicle -4.13472e-014 2.22639e-014
rhumerus -23.159 22.1415 -97.0345
rradius 20.1766
rwrist 18.6627
rhand -26.2347 -54.4621
rfingers 7.12502
rthumb 0.319035 -84.4416
lclavicle -4.13472e-014 2.22639e-014
lhumerus -55.3965 -83.6279 131.643
lradius 83.6147
lwrist 26.1088
lhand 3.92416 -20.205
lfingers 7.12502
lthumb 29.3433 7.49918
rfemur -32.9816 0.286806 -3.8198
rtibia 75.3778
rfoot -2.92462 -10.3395
rtoes -29.4382
lfemur -50.9827 -20.798 -28.2926
ltibia 57.6351
lfoot -21.051 0.0720748
ltoes 18.8245
1030
root 0.747713 15.725 3.11675 7.43948 -43.5893 12.2414
lowerback -1.551 5.09374 6.36795
upperback 4.0324 6.58493 -1.34781
thorax 5.97297 3.56989 -4.46552
lowerneck 2.47553 -9.38651 -12.1998
upperneck 47.1043 -18.4933 8.32165
head 20.571 -9.0105 3.37736
rclavicle -7.39479e-014 6.67916e-014
rhumerus -23.0997 22.1935 -97.0385
rradius 20.1771
rwrist 18.717
rhand -26.3917 -54.364
rfingers 7.12502
rthumb 0.167448 -84.3437
lclavicle -7.39479e-014 6.67916e-014
lhumerus -55.3832 -83.7325 131.578
lradius 83.6232
lwrist 26.0865
lhand 4.02919 -20.6048
lfingers 7.12502
lthumb 29.4436 7.08183
rfemur -32.9428 0.287505 -3.96592
rtibia 75.3409
rfoot -2.90883 -10.312
rtoes -30.3053
lfemur -50.8596 -20.9089 -28.3968
ltibia 57.5542
lfoot -21.1492 0.3985
ltoes 17.894
1031
root 0.748009 15.7225 3.11315 7.46498 -43.5718 12.231
lowerback -1.51532 5.11685 6.39634
upperback 4.00567 6.61605 -1.32052
thorax 5.92838 3.58396 -4.4543
lowerneck 2.6149 -9.41288 -12.334
upperneck 47.0695 -18.5598 8.40017
head 20.562 -9.05798 3.43511
rclavicle -1.29608e-013 6.20208e-014
rhumerus -23.1554 22.0506 -96.9337
rradius 20.2094
rwrist 18.7776
rhand -26.4695 -54.321
rfingers 7.12502
rthumb 0.0922854 -84.3007
lclavicle -1.29608e-013 6.20208e-014
lhumerus -56.058 -83.6561 132.382
lradius 83.5649
lwrist 25.9366
lhand 4.68898 -21.1307
lfingers 7.12502
lthumb 30.0733 6.44333
rfemur -32.9796 0.28478 -3.9493
rtibia 75.3538
rfoot -2.93991 -10.3453
rtoes -30.7238
lfemur -50.9004 -20.991 -28.2786
ltibia 57.504
lfoot -21.0687 0.657376
ltoes 15.9948
1032
root 0.749264 15.7204 3.10686 7.5244 -43.5254 12.1361
lowerback -1.42045 5.11105 6.43393
upperback 3.99232 6.61047 -1.27711
thorax 5.85838 3.57946 -4.43975
lowerneck 2.61443 -9.46185 -12.3582
upperneck 47.1139 -18.6144 8.33085
head 20.5981 -9.08778 3.39369
rclavicle 7.31528e-014 -3.33958e-014
rhumerus -23.06 22.0473 -96.8985
rradius 20.2166
rwrist 18.6058
rhand -26.0397 -54.639
rfingers 7.12502
rthumb 0.507435 -84.6182
lclavicle 7.31528e-014 -3.33958e-014
lhumerus -56.3077 -83.6663 132.663
lradius 83.665
lwrist 26.0419
lhand 4.94321 -20.7816
lfingers 7.12502
lthumb 30.3158 6.74803
rfemur -32.9926 0.301714 -3.83317
rtibia 75.3691
rfoot -2.88863 -10.3871
rtoes -30.01
lfemur -50.963 -21 -28.1282
ltibia 57.4952
lfoot -21.0071 0.419584
ltoes 16.5726
1033
root 0.750087 15.7206 3.10744 7.44516 -43.6053 12.1664
lowerback -1.40337 5.13426 6.43426
upperback 4.06004 6.64189 -1.3025
thorax 5.92845 3.59924 -4.46122
lowerneck 2.51802 -9.49661 -12.2425
upperneck 47.1264 -18.6185 8.21334
head 20.588 -9.07352 3.30778
rclavicle -1.11319e-014 1.74931e-014
rhumerus -22.9243 22.2625 -96.9513
rradius 20.2806
rwrist 18.2345
rhand -25.5284 -55.0378
rfingers 7.12502
rthumb 1.0012 -85.0152
lclavicle -1.11319e-014 1.74931e-014
lhumerus -56.6353 -83.8526 132.949
lradius 83.8204
lwrist 26.2986
lhand 4.35467 -19.8979
lfingers 7.12502
lthumb 29.7543 7.73359
rfemur -32.9812 0.371706 -3.85678
rtibia 75.3698
rfoot -2.75173 -10.406
rtoes -29.1378
lfemur -50.8899 -20.8534 -28.2103
ltibia 57.5047
lfoot -21.0424 0.171199
ltoes 17.4526
1034
root 0.749727 15.7208 3.10988 7.3152 -43.6608 12.2638
lowerback -1.44903 5.13475 6.43993
upperback 4.15164 6.63928 -1.34572
thorax 6.05841 3.605 -4.50038
lowerneck 2.5221 -9.48731 -12.2513
upperneck 47.0273 -18.6107 8.29
head 20.5266 -9.06572 3.34794
rclavicle 2.14687e-014 -9.54166e-015
rhumerus -22.9102 22.6297 -97.025
rradius 20.401
rwrist 17.8992
rhand -25.4978 -54.9841
rfingers 7.12502
rthumb 1.0308 -84.9614
lclavicle 2.14687e-014 -9.54166e-015
lhumerus -56.2155 -83.8971 132.522
lradius 83.8479
lwrist 26.3173
lhand 3.65041 -19.5866
lfingers 7.12502
lthumb 29.0819 8.16309
rfemur -32.9299 0.418689 -3.95719
rtibia 75.3683
rfoot -2.71512 -10.3846
rtoes -28.8772
lfemur -50.7681 -20.7897 -28.3564
ltibia 57.5066
lfoot -21.096 0.271422
ltoes 17.0039
